{"accessors" : [{"bufferView" : 0, "byteOffset" : 0, "componentType" : 5125, "count" : 82416, "type" : "SCALAR", "max" : [76798], "min" : [0]}, {"bufferView" : 1, "byteOffset" : 0, "componentType" : 5126, "count" : 76799, "type" : "VEC3", "max" : [21.439899444580078, 12.908700942993164, 3.143899917602539], "min" : [-21.439899444580078, 0, -3.143899917602539], "name" : "POSITION"}, {"bufferView" : 1, "byteOffset" : 12, "componentType" : 5126, "count" : 76799, "type" : "VEC2", "max" : [0.9980000257492065, 0.9879999756813049], "min" : [0.013500000350177288, 0.008000016212463379], "name" : "TEXCOORD_0"}, {"bufferView" : 1, "byteOffset" : 20, "componentType" : 5126, "count" : 76799, "type" : "VEC3", "max" : [1.0000044107437134, 1.0000033378601074, 1.0000019073486328], "min" : [-1.0000044107437134, -1.0000042915344238, -1.0000019073486328], "name" : "NORMAL"}], "asset" : {"generator" : "Aspose.3D 24.1.0", "version" : "2.0"}, "buffers" : [{"uri" : "data:application/octet-stream;base64,", "byteLength" : 2966984}], "bufferViews" : [{"buffer" : 0, "byteOffset" : 0, "byteLength" : 329664, "target" : 34963}, {"buffer" : 0, "byteOffset" : 329668, "byteLength" : 2637312, "byteStride" : 32, "target" : 34962}], "materials" : [{"name" : "mullet_fish_RPT191417114_MatSG", "pbrMetallicRoughness" : {"baseColorFactor" : [0.5, 0.5, 0.5, 1], "metallicFactor" : 1, "roughnessFactor" : 1}, "emissiveFactor" : [0, 0, 0], "alphaMode" : "OPAQUE", "doubleSided" : false}], "meshes" : [{"primitives" : [{"attributes" : {"POSITION" : 1, "TEXCOORD_0" : 2, "NORMAL" : 3}, "indices" : 0, "material" : 0, "mode" : 4}], "name" : ""}], "nodes" : [{"mesh" : 0, "name" : "mullet_fish_RPT191417114"}], "scene" : 0, "scenes" : [{"nodes" : [0]}]}